<svg width="35" height="35" viewBox="0 0 35 35" fill="none" xmlns="http://www.w3.org/2000/svg">
<path id="Vector" d="M27.2222 19.4444H19.4444V27.2222H15.5556V19.4444H7.77778V15.5556H15.5556V7.77778H19.4444V15.5556H27.2222M31.1111 0H3.88889C1.73056 0 0 1.73056 0 3.88889V31.1111C0 32.1425 0.409721 33.1317 1.13903 33.861C1.86834 34.5903 2.85749 35 3.88889 35H31.1111C32.1425 35 33.1317 34.5903 33.861 33.861C34.5903 33.1317 35 32.1425 35 31.1111V3.88889C35 2.85749 34.5903 1.86834 33.861 1.13903C33.1317 0.409721 32.1425 0 31.1111 0Z" fill="white"/>
</svg>
