<svg width="200" height="200" viewBox="0 0 200 200" fill="none" xmlns="http://www.w3.org/2000/svg">
<g id="alert-circle">
<path id="Vector" d="M104.667 102.711H88.6667V55.7776H104.667M104.667 134H88.6667V118.355H104.667M96.6667 16.6665C86.1609 16.6665 75.758 18.6898 66.052 22.6208C56.3459 26.5519 47.5268 32.3137 40.0981 39.5773C25.0952 54.2468 16.6667 74.1429 16.6667 94.8887C16.6667 115.635 25.0952 135.531 40.0981 150.2C47.5268 157.464 56.3459 163.226 66.052 167.157C75.758 171.088 86.1609 173.111 96.6667 173.111C117.884 173.111 138.232 164.87 153.235 150.2C168.238 135.531 176.667 115.635 176.667 94.8887C176.667 84.6164 174.597 74.4447 170.577 64.9544C166.557 55.464 160.664 46.8409 153.235 39.5773C145.807 32.3137 136.987 26.5519 127.281 22.6208C117.575 18.6898 107.172 16.6665 96.6667 16.6665Z" fill="#FF0000"/>
</g>
</svg>
