<svg width="17" height="21" viewBox="0 0 17 21" fill="none" xmlns="http://www.w3.org/2000/svg">
<path d="M6.19435 0.250058C5.36596 0.246058 4.54966 0.448818 3.81942 0.839965C3.08918 1.23111 2.46808 1.79828 2.01239 2.49009C1.5567 3.1819 1.28084 3.97647 1.20978 4.80182C1.13872 5.62716 1.27473 6.4572 1.60547 7.21671C0.638806 8.16115 0.083252 9.45003 0.083252 10.8056C0.083252 13.5834 2.30547 15.8056 5.08324 15.8056C5.63879 15.8056 6.19435 15.6833 6.7499 15.4945V20.25H8.97212V14.4389C9.52767 14.5945 10.0832 14.6945 10.6388 14.6945C11.4413 14.6945 12.236 14.5364 12.9774 14.2293C13.7188 13.9222 14.3925 13.472 14.96 12.9046C15.5274 12.3371 15.9776 11.6634 16.2847 10.922C16.5918 10.1806 16.7499 9.38589 16.7499 8.58337C16.7499 7.78085 16.5918 6.98619 16.2847 6.24475C15.9776 5.50332 15.5274 4.82964 14.96 4.26217C14.3925 3.6947 13.7188 3.24456 12.9774 2.93745C12.236 2.63034 11.4413 2.47227 10.6388 2.47227H10.3499C9.42767 1.0945 7.86101 0.250058 6.19435 0.250058ZM6.19435 2.47227C7.66101 2.47227 8.87212 3.61672 8.97212 5.08338C9.48323 4.82782 10.0832 4.69449 10.6388 4.69449C11.6702 4.69449 12.6593 5.10421 13.3886 5.83352C14.1179 6.56282 14.5277 7.55197 14.5277 8.58337C14.5277 9.61476 14.1179 10.6039 13.3886 11.3332C12.6593 12.0625 11.6702 12.4722 10.6388 12.4722C9.57211 12.4722 8.56101 12.0389 7.81656 11.2611C7.71078 11.9097 7.37771 12.4994 6.87694 12.9249C6.37616 13.3503 5.74035 13.5837 5.08324 13.5834C4.34653 13.5834 3.63999 13.2907 3.11906 12.7698C2.59813 12.2488 2.30547 11.5423 2.30547 10.8056C2.30547 9.27225 3.19435 8.62781 4.52768 7.79448C3.6388 6.65004 3.41658 5.98338 3.41658 5.25004C3.41658 4.51333 3.70923 3.8068 4.23017 3.28586C4.7511 2.76493 5.45764 2.47227 6.19435 2.47227Z" fill="#EC9900"/>
</svg>
