<svg width="45" height="45" viewBox="0 0 45 45" fill="none" xmlns="http://www.w3.org/2000/svg">
<g id="mdi:wifi-strength-off-outline">
<path id="Vector" d="M6.13127 2.69995L3.75002 5.09995L7.59377 8.9437C5.15627 10.0687 2.81252 11.4562 0.712524 13.125C7.87502 22.125 15.2625 31.2562 22.5 40.3125L29.8313 31.1812L36.0563 37.4062L38.4375 35.025C27.8813 24.45 6.13127 2.69995 6.13127 2.69995ZM22.5 5.62495C19.875 5.62495 17.2688 5.9437 14.7375 6.56245L17.925 9.7312C19.4438 9.5062 20.9625 9.37495 22.5 9.37495C28.2563 9.37495 33.9188 10.9875 38.8313 13.9687L31.425 23.2125L34.0875 25.875C37.65 21.4312 41.25 16.875 44.3438 13.125C38.1 8.2687 30.4125 5.62495 22.5 5.62495ZM10.4438 11.7937L27.1875 28.5187L22.5 34.3124L6.13127 13.95C7.50002 13.125 8.96253 12.3937 10.4438 11.7937Z" fill="white"/>
</g>
</svg>
