<svg width="35" height="35" viewBox="0 0 35 35" fill="none" xmlns="http://www.w3.org/2000/svg">
<g id="mdi:eye">
<path id="Vector" d="M17.5 13.125C16.3397 13.125 15.2269 13.5859 14.4064 14.4064C13.5859 15.2269 13.125 16.3397 13.125 17.5C13.125 18.6603 13.5859 19.7731 14.4064 20.5936C15.2269 21.4141 16.3397 21.875 17.5 21.875C18.6603 21.875 19.7731 21.4141 20.5936 20.5936C21.4141 19.7731 21.875 18.6603 21.875 17.5C21.875 16.3397 21.4141 15.2269 20.5936 14.4064C19.7731 13.5859 18.6603 13.125 17.5 13.125ZM17.5 24.7917C15.5661 24.7917 13.7115 24.0234 12.344 22.656C10.9766 21.2885 10.2083 19.4339 10.2083 17.5C10.2083 15.5661 10.9766 13.7115 12.344 12.344C13.7115 10.9766 15.5661 10.2083 17.5 10.2083C19.4339 10.2083 21.2885 10.9766 22.656 12.344C24.0234 13.7115 24.7917 15.5661 24.7917 17.5C24.7917 19.4339 24.0234 21.2885 22.656 22.656C21.2885 24.0234 19.4339 24.7917 17.5 24.7917ZM17.5 6.5625C10.2083 6.5625 3.98126 11.0979 1.45834 17.5C3.98126 23.9021 10.2083 28.4375 17.5 28.4375C24.7917 28.4375 31.0188 23.9021 33.5417 17.5C31.0188 11.0979 24.7917 6.5625 17.5 6.5625Z" fill="#2C2C7C"/>
</g>
</svg>
