<svg width="79" height="40" viewBox="0 0 79 40" fill="none" xmlns="http://www.w3.org/2000/svg">
<g id="mdi:toggle-switch">
<path id="Vector" d="M55.4345 3.69568H22.8258C18.5016 3.69568 14.3546 5.41345 11.2969 8.47111C8.23926 11.5288 6.52148 15.6758 6.52148 20C6.52148 24.3242 8.23926 28.4713 11.2969 31.5289C14.3546 34.5866 18.5016 36.3044 22.8258 36.3044H55.4345C59.7587 36.3044 63.9058 34.5866 66.9634 31.5289C70.0211 28.4713 71.7389 24.3242 71.7389 20C71.7389 15.6758 70.0211 11.5288 66.9634 8.47111C63.9058 5.41345 59.7587 3.69568 55.4345 3.69568ZM55.4345 29.7826C52.84 29.7826 50.3518 28.752 48.5172 26.9174C46.6826 25.0828 45.6519 22.5945 45.6519 20C45.6519 17.4055 46.6826 14.9173 48.5172 13.0827C50.3518 11.2481 52.84 10.2174 55.4345 10.2174C58.029 10.2174 60.5173 11.2481 62.3519 13.0827C64.1865 14.9173 65.2171 17.4055 65.2171 20C65.2171 22.5945 64.1865 25.0828 62.3519 26.9174C60.5173 28.752 58.029 29.7826 55.4345 29.7826Z" fill="white"/>
</g>
</svg>
