<svg width="35" height="35" viewBox="0 0 35 35" fill="none" xmlns="http://www.w3.org/2000/svg">
<g id="mdi:wifi-lock">
<path id="Vector" d="M17.5 8.75C12.5708 8.75 8.02083 10.3833 4.375 13.125L1.75 9.625C6.13958 6.32917 11.5938 4.375 17.5 4.375C23.4063 4.375 28.8604 6.32917 33.25 9.625L30.625 13.125C26.9792 10.3833 22.4292 8.75 17.5 8.75ZM25.375 15.0063C22.4663 13.5343 19.2037 12.9058 15.9564 13.1919C12.709 13.4779 9.60654 14.6672 7 16.625L9.625 20.125C11.8125 18.4771 14.5396 17.5 17.5 17.5C18.9146 17.5 20.2708 17.7333 21.5542 18.1417C22.3708 16.6979 23.7271 15.575 25.375 15.0063ZM12.25 23.625L17.5 30.625L18.9583 28.6854V25.0833C18.9583 24.0625 19.3521 23.0563 19.9792 22.2542C19.1754 22.009 18.3403 21.8813 17.5 21.875C15.5313 21.875 13.7083 22.5313 12.25 23.625ZM33.5417 25.2292V30.3333C33.5417 31.2083 32.6667 32.0833 31.6458 32.0833H23.625C22.75 32.0833 21.875 31.2083 21.875 30.1875V25.0833C21.875 24.2083 22.75 23.3333 23.625 23.3333V21.1458C23.625 19.1042 25.6667 17.5 27.7083 17.5C29.75 17.5 31.7917 19.1042 31.7917 21.1458V23.3333C32.6667 23.3333 33.5417 24.2083 33.5417 25.2292ZM29.8958 21.1458C29.8958 19.9792 28.875 19.25 27.7083 19.25C26.5417 19.25 25.5208 19.9792 25.5208 21.1458V23.3333H29.8958V21.1458Z" fill="white"/>
</g>
</svg>
