<svg width="20" height="20" viewBox="0 0 20 20" fill="none" xmlns="http://www.w3.org/2000/svg">
<g id="mdi:lock">
<path id="Vector" d="M10 14.1666C10.4421 14.1666 10.866 13.9911 11.1786 13.6785C11.4911 13.3659 11.6667 12.942 11.6667 12.5C11.6667 12.058 11.4911 11.634 11.1786 11.3215C10.866 11.0089 10.4421 10.8333 10 10.8333C9.55801 10.8333 9.13409 11.0089 8.82153 11.3215C8.50897 11.634 8.33337 12.058 8.33337 12.5C8.33337 12.942 8.50897 13.3659 8.82153 13.6785C9.13409 13.9911 9.55801 14.1666 10 14.1666ZM15 6.66665C15.4421 6.66665 15.866 6.84224 16.1786 7.1548C16.4911 7.46736 16.6667 7.89129 16.6667 8.33331V16.6666C16.6667 17.1087 16.4911 17.5326 16.1786 17.8452C15.866 18.1577 15.4421 18.3333 15 18.3333H5.00004C4.55801 18.3333 4.13409 18.1577 3.82153 17.8452C3.50897 17.5326 3.33337 17.1087 3.33337 16.6666V8.33331C3.33337 7.89129 3.50897 7.46736 3.82153 7.1548C4.13409 6.84224 4.55801 6.66665 5.00004 6.66665H5.83337V4.99998C5.83337 3.89491 6.27236 2.8351 7.05376 2.0537C7.83516 1.2723 8.89497 0.833313 10 0.833313C10.5472 0.833313 11.089 0.941087 11.5946 1.15048C12.1001 1.35988 12.5594 1.66679 12.9463 2.0537C13.3332 2.44061 13.6401 2.89994 13.8495 3.40547C14.0589 3.91099 14.1667 4.45281 14.1667 4.99998V6.66665H15ZM10 2.49998C9.337 2.49998 8.70111 2.76337 8.23227 3.23221C7.76343 3.70105 7.50004 4.33694 7.50004 4.99998V6.66665H12.5V4.99998C12.5 4.33694 12.2366 3.70105 11.7678 3.23221C11.299 2.76337 10.6631 2.49998 10 2.49998Z" fill="#707070"/>
</g>
</svg>
