<svg width="79" height="40" viewBox="0 0 79 40" fill="none" xmlns="http://www.w3.org/2000/svg">
<g id="mdi:toggle-switch">
<path id="Vector" d="M55.4345 3.69556H22.8258C18.5017 3.69556 14.3546 5.41333 11.2969 8.47099C8.23926 11.5286 6.52148 15.6757 6.52148 19.9999C6.52148 24.3241 8.23926 28.4712 11.2969 31.5288C14.3546 34.5865 18.5017 36.3043 22.8258 36.3043H55.4345C59.7587 36.3043 63.9058 34.5865 66.9634 31.5288C70.0211 28.4712 71.7389 24.3241 71.7389 19.9999C71.7389 15.6757 70.0211 11.5286 66.9634 8.47099C63.9058 5.41333 59.7587 3.69556 55.4345 3.69556ZM55.4345 29.7825C52.84 29.7825 50.3518 28.7518 48.5172 26.9173C46.6826 25.0827 45.6519 22.5944 45.6519 19.9999C45.6519 17.4054 46.6826 14.9171 48.5172 13.0826C50.3518 11.248 52.84 10.2173 55.4345 10.2173C58.029 10.2173 60.5173 11.248 62.3519 13.0826C64.1865 14.9171 65.2171 17.4054 65.2171 19.9999C65.2171 22.5944 64.1865 25.0827 62.3519 26.9173C60.5173 28.7518 58.029 29.7825 55.4345 29.7825Z" fill="#707070"/>
</g>
</svg>
