<svg width="200" height="200" viewBox="0 0 200 200" fill="none" xmlns="http://www.w3.org/2000/svg">
<g id="mdi:information">
<path id="Vector" d="M108.333 75.0001H91.6667V58.3334H108.333M108.333 141.667H91.6667V91.6668H108.333M100 16.6667C89.0565 16.6667 78.2202 18.8222 68.1097 23.0101C57.9993 27.198 48.8127 33.3363 41.0744 41.0745C25.4464 56.7026 16.6667 77.8987 16.6667 100C16.6667 122.101 25.4464 143.298 41.0744 158.926C48.8127 166.664 57.9993 172.802 68.1097 176.99C78.2202 181.178 89.0565 183.333 100 183.333C122.101 183.333 143.298 174.554 158.926 158.926C174.554 143.298 183.333 122.101 183.333 100C183.333 89.0566 181.178 78.2203 176.99 68.1098C172.802 57.9993 166.664 48.8127 158.926 41.0745C151.187 33.3363 142.001 27.198 131.89 23.0101C121.78 18.8222 110.944 16.6667 100 16.6667Z" fill="#2C2C7C"/>
</g>
</svg>
