<svg width="45" height="45" viewBox="0 0 45 45" fill="none" xmlns="http://www.w3.org/2000/svg">
<g id="mdi:close-circle-outline">
<path id="Vector" d="M22.5 37.5C14.2313 37.5 7.5 30.7687 7.5 22.5C7.5 14.2313 14.2313 7.5 22.5 7.5C30.7687 7.5 37.5 14.2313 37.5 22.5C37.5 30.7687 30.7687 37.5 22.5 37.5ZM22.5 3.75C12.1312 3.75 3.75 12.1312 3.75 22.5C3.75 32.8688 12.1312 41.25 22.5 41.25C32.8688 41.25 41.25 32.8688 41.25 22.5C41.25 12.1312 32.8688 3.75 22.5 3.75ZM27.3563 15L22.5 19.8563L17.6437 15L15 17.6437L19.8563 22.5L15 27.3563L17.6437 30L22.5 25.1437L27.3563 30L30 27.3563L25.1437 22.5L30 17.6437L27.3563 15Z" fill="white"/>
</g>
</svg>
