<svg width="70" height="70" viewBox="0 0 70 70" fill="none" xmlns="http://www.w3.org/2000/svg">
<g id="mdi:check-circle-outline">
<path id="Vector" d="M35 5.83325C18.9583 5.83325 5.83334 18.9583 5.83334 34.9999C5.83334 51.0416 18.9583 64.1666 35 64.1666C51.0417 64.1666 64.1667 51.0416 64.1667 34.9999C64.1667 18.9583 51.0417 5.83325 35 5.83325ZM35 58.3332C22.1375 58.3332 11.6667 47.8624 11.6667 34.9999C11.6667 22.1374 22.1375 11.6666 35 11.6666C47.8625 11.6666 58.3333 22.1374 58.3333 34.9999C58.3333 47.8624 47.8625 58.3332 35 58.3332ZM48.3875 22.1083L29.1667 41.3291L21.6125 33.8041L17.5 37.9166L29.1667 49.5832L52.5 26.2499L48.3875 22.1083Z" fill="#2C2C7C"/>
</g>
</svg>
