<svg width="50" height="50" viewBox="0 0 50 50" fill="none" xmlns="http://www.w3.org/2000/svg">
<g id="mdi:shield-account">
<path id="Vector" d="M25 2.08331L6.25 10.4166V22.9166C6.25 34.4791 14.25 45.2916 25 47.9166C35.75 45.2916 43.75 34.4791 43.75 22.9166V10.4166L25 2.08331ZM25 10.4166C26.6576 10.4166 28.2473 11.0751 29.4194 12.2472C30.5915 13.4193 31.25 15.009 31.25 16.6666C31.25 18.3242 30.5915 19.914 29.4194 21.0861C28.2473 22.2582 26.6576 22.9166 25 22.9166C23.3424 22.9166 21.7527 22.2582 20.5806 21.0861C19.4085 19.914 18.75 18.3242 18.75 16.6666C18.75 15.009 19.4085 13.4193 20.5806 12.2472C21.7527 11.0751 23.3424 10.4166 25 10.4166ZM35.6875 35.4166C33.1633 39.2805 29.3913 42.1628 25 43.5833C20.6087 42.1628 16.8367 39.2805 14.3125 35.4166C13.6042 34.375 13 33.3333 12.5 32.2291C12.5 28.7916 18.1458 25.9791 25 25.9791C31.8542 25.9791 37.5 28.7291 37.5 32.2291C37 33.3333 36.3958 34.375 35.6875 35.4166Z" fill="white"/>
</g>
</svg>
