<svg width="50" height="50" viewBox="0 0 50 50" fill="none" xmlns="http://www.w3.org/2000/svg">
<g id="mdi:account-circle">
<path id="Vector" d="M24.9998 40C19.7915 40 15.1873 37.3333 12.4998 33.3333C12.5623 29.1666 20.8332 26.875 24.9998 26.875C29.1665 26.875 37.4373 29.1666 37.4998 33.3333C36.1225 35.3841 34.262 37.0649 32.0823 38.2274C29.9025 39.39 27.4703 39.9987 24.9998 40ZM24.9998 10.4166C26.6574 10.4166 28.2472 11.0751 29.4193 12.2472C30.5914 13.4193 31.2498 15.009 31.2498 16.6666C31.2498 18.3242 30.5914 19.9139 29.4193 21.086C28.2472 22.2581 26.6574 22.9166 24.9998 22.9166C23.3422 22.9166 21.7525 22.2581 20.5804 21.086C19.4083 19.9139 18.7498 18.3242 18.7498 16.6666C18.7498 15.009 19.4083 13.4193 20.5804 12.2472C21.7525 11.0751 23.3422 10.4166 24.9998 10.4166ZM24.9998 4.16663C22.264 4.16663 19.5549 4.7055 17.0273 5.75247C14.4996 6.79944 12.203 8.33401 10.2684 10.2686C6.36144 14.1756 4.1665 19.4746 4.1665 25C4.1665 30.5253 6.36144 35.8243 10.2684 39.7313C12.203 41.6659 14.4996 43.2005 17.0273 44.2475C19.5549 45.2944 22.264 45.8333 24.9998 45.8333C30.5252 45.8333 35.8242 43.6384 39.7312 39.7313C43.6382 35.8243 45.8332 30.5253 45.8332 25C45.8332 13.4791 36.4582 4.16663 24.9998 4.16663Z" fill="white"/>
</g>
</svg>
