<svg width="58" height="32" viewBox="0 0 58 32" fill="none" xmlns="http://www.w3.org/2000/svg">
<g id="mdi:toggle-switch-off">
<path id="Vector" d="M40.7998 4H16.7998C13.6172 4 10.565 5.26428 8.31452 7.51472C6.06409 9.76516 4.7998 12.8174 4.7998 16C4.7998 19.1826 6.06409 22.2348 8.31452 24.4853C10.565 26.7357 13.6172 28 16.7998 28H40.7998C43.9824 28 47.0347 26.7357 49.2851 24.4853C51.5355 22.2348 52.7998 19.1826 52.7998 16C52.7998 12.8174 51.5355 9.76516 49.2851 7.51472C47.0347 5.26428 43.9824 4 40.7998 4ZM16.7998 23.2C14.8902 23.2 13.0589 22.4414 11.7086 21.0912C10.3584 19.7409 9.5998 17.9096 9.5998 16C9.5998 14.0904 10.3584 12.2591 11.7086 10.9088C13.0589 9.55857 14.8902 8.8 16.7998 8.8C18.7094 8.8 20.5407 9.55857 21.891 10.9088C23.2412 12.2591 23.9998 14.0904 23.9998 16C23.9998 17.9096 23.2412 19.7409 21.891 21.0912C20.5407 22.4414 18.7094 23.2 16.7998 23.2Z" fill="white"/>
</g>
</svg>
