<svg width="100" height="100" viewBox="0 0 100 100" fill="none" xmlns="http://www.w3.org/2000/svg">
<g id="mdi:account-circle">
<path id="Vector" d="M50.0002 80C39.5835 80 30.3752 74.6666 25.0002 66.6666C25.1252 58.3333 41.6668 53.75 50.0002 53.75C58.3335 53.75 74.8752 58.3333 75.0002 66.6666C72.2455 70.7683 68.5246 74.1298 64.165 76.4549C59.8054 78.78 54.941 79.9974 50.0002 80ZM50.0002 20.8333C53.3154 20.8333 56.4948 22.1503 58.839 24.4945C61.1832 26.8387 62.5002 30.0181 62.5002 33.3333C62.5002 36.6485 61.1832 39.8279 58.839 42.1721C56.4948 44.5164 53.3154 45.8333 50.0002 45.8333C46.685 45.8333 43.5055 44.5164 41.1613 42.1721C38.8171 39.8279 37.5002 36.6485 37.5002 33.3333C37.5002 30.0181 38.8171 26.8387 41.1613 24.4945C43.5055 22.1503 46.685 20.8333 50.0002 20.8333ZM50.0002 8.33331C44.5284 8.33331 39.1103 9.41105 34.055 11.505C28.9998 13.5989 24.4065 16.6681 20.5374 20.5372C12.7234 28.3512 8.3335 38.9493 8.3335 50C8.3335 61.0507 12.7234 71.6487 20.5374 79.4628C24.4065 83.3319 28.9998 86.401 34.055 88.495C39.1103 90.5889 44.5284 91.6666 50.0002 91.6666C61.0508 91.6666 71.6489 87.2768 79.4629 79.4628C87.277 71.6487 91.6668 61.0507 91.6668 50C91.6668 26.9583 72.9168 8.33331 50.0002 8.33331Z" fill="white"/>
</g>
</svg>
