<svg width="66" height="33" viewBox="0 0 66 33" fill="none" xmlns="http://www.w3.org/2000/svg">
<path id="Vector" d="M48.915 0H16.305C11.9806 0 7.83341 1.71784 4.77562 4.77562C1.71784 7.83341 0 11.9806 0 16.305C0 20.6294 1.71784 24.7766 4.77562 27.8344C7.83341 30.8922 11.9806 32.61 16.305 32.61H48.915C53.2394 32.61 57.3866 30.8922 60.4444 27.8344C63.5022 24.7766 65.22 20.6294 65.22 16.305C65.22 11.9806 63.5022 7.83341 60.4444 4.77562C57.3866 1.71784 53.2394 0 48.915 0ZM16.305 26.088C13.7104 26.088 11.222 25.0573 9.38738 23.2226C7.55271 21.388 6.522 18.8996 6.522 16.305C6.522 13.7104 7.55271 11.222 9.38738 9.38737C11.222 7.55271 13.7104 6.522 16.305 6.522C18.8996 6.522 21.388 7.55271 23.2226 9.38737C25.0573 11.222 26.088 13.7104 26.088 16.305C26.088 18.8996 25.0573 21.388 23.2226 23.2226C21.388 25.0573 18.8996 26.088 16.305 26.088Z" fill="#707070"/>
</svg>
