<svg width="14" height="19" viewBox="0 0 14 19" fill="none" xmlns="http://www.w3.org/2000/svg">
<path id="Vector" d="M7 14.1667C7.44203 14.1667 7.86595 13.9911 8.17851 13.6786C8.49107 13.366 8.66667 12.9421 8.66667 12.5C8.66667 12.058 8.49107 11.6341 8.17851 11.3215C7.86595 11.009 7.44203 10.8334 7 10.8334C6.55797 10.8334 6.13405 11.009 5.82149 11.3215C5.50893 11.6341 5.33333 12.058 5.33333 12.5C5.33333 12.9421 5.50893 13.366 5.82149 13.6786C6.13405 13.9911 6.55797 14.1667 7 14.1667ZM12 6.66671C12.442 6.66671 12.8659 6.8423 13.1785 7.15486C13.4911 7.46742 13.6667 7.89135 13.6667 8.33337V16.6667C13.6667 17.1087 13.4911 17.5327 13.1785 17.8452C12.8659 18.1578 12.442 18.3334 12 18.3334H2C1.55797 18.3334 1.13405 18.1578 0.821487 17.8452C0.508927 17.5327 0.333332 17.1087 0.333332 16.6667V8.33337C0.333332 7.89135 0.508927 7.46742 0.821487 7.15486C1.13405 6.8423 1.55797 6.66671 2 6.66671H2.83333V5.00004C2.83333 3.89497 3.27232 2.83516 4.05372 2.05376C4.83512 1.27236 5.89493 0.833374 7 0.833374C7.54717 0.833374 8.08899 0.941148 8.59451 1.15054C9.10004 1.35994 9.55937 1.66685 9.94628 2.05376C10.3332 2.44067 10.6401 2.9 10.8495 3.40553C11.0589 3.91105 11.1667 4.45287 11.1667 5.00004V6.66671H12ZM7 2.50004C6.33696 2.50004 5.70107 2.76343 5.23223 3.23227C4.76339 3.70111 4.5 4.337 4.5 5.00004V6.66671H9.5V5.00004C9.5 4.337 9.23661 3.70111 8.76777 3.23227C8.29892 2.76343 7.66304 2.50004 7 2.50004Z" fill="#707070"/>
</svg>
