<svg width="41" height="35" viewBox="0 0 41 35" fill="none" xmlns="http://www.w3.org/2000/svg">
<path d="M20.5 34.375L27.25 25.375C25.375 23.9688 23.0312 23.125 20.5 23.125C17.9688 23.125 15.625 23.9688 13.75 25.375L20.5 34.375ZM20.5 0.625C12.9062 0.625 5.89375 3.1375 0.25 7.375L3.625 11.875C8.3125 8.35 14.1625 6.25 20.5 6.25C26.8375 6.25 32.6875 8.35 37.375 11.875L40.75 7.375C35.1062 3.1375 28.0938 0.625 20.5 0.625ZM20.5 11.875C15.4375 11.875 10.7688 13.5437 7 16.375L10.375 20.875C13.1875 18.7563 16.6938 17.5 20.5 17.5C24.3062 17.5 27.8125 18.7563 30.625 20.875L34 16.375C30.2313 13.5437 25.5625 11.875 20.5 11.875Z" fill="white"/>
</svg>
