<svg width="150" height="150" viewBox="0 0 150 150" fill="none" xmlns="http://www.w3.org/2000/svg">
<g id="mdi:account-circle">
<path id="Vector" d="M75 120C59.375 120 45.5625 112 37.5 100C37.6875 87.5 62.5 80.625 75 80.625C87.5 80.625 112.312 87.5 112.5 100C108.368 106.153 102.787 111.195 96.2472 114.682C89.7079 118.17 82.4113 119.996 75 120ZM75 31.25C79.9728 31.25 84.7419 33.2254 88.2582 36.7417C91.7746 40.2581 93.75 45.0272 93.75 50C93.75 54.9728 91.7746 59.7419 88.2582 63.2583C84.7419 66.7746 79.9728 68.75 75 68.75C70.0272 68.75 65.258 66.7746 61.7417 63.2583C58.2254 59.7419 56.25 54.9728 56.25 50C56.25 45.0272 58.2254 40.2581 61.7417 36.7417C65.258 33.2254 70.0272 31.25 75 31.25ZM75 12.5C66.7924 12.5 58.6651 14.1166 51.0823 17.2575C43.4994 20.3984 36.6095 25.0022 30.8058 30.8058C19.0848 42.5268 12.5 58.424 12.5 75C12.5 91.576 19.0848 107.473 30.8058 119.194C36.6095 124.998 43.4994 129.602 51.0823 132.742C58.6651 135.883 66.7924 137.5 75 137.5C91.576 137.5 107.473 130.915 119.194 119.194C130.915 107.473 137.5 91.576 137.5 75C137.5 40.4375 109.375 12.5 75 12.5Z" fill="white" fill-opacity="0.7"/>
</g>
</svg>
