<svg width="20" height="20" viewBox="0 0 20 20" fill="none" xmlns="http://www.w3.org/2000/svg">
<g id="mdi:account">
<path id="Vector" d="M10 3.33331C10.8841 3.33331 11.7319 3.6845 12.3571 4.30962C12.9822 4.93474 13.3334 5.78259 13.3334 6.66665C13.3334 7.5507 12.9822 8.39855 12.3571 9.02367C11.7319 9.64879 10.8841 9.99998 10 9.99998C9.11599 9.99998 8.26814 9.64879 7.64302 9.02367C7.0179 8.39855 6.66671 7.5507 6.66671 6.66665C6.66671 5.78259 7.0179 4.93474 7.64302 4.30962C8.26814 3.6845 9.11599 3.33331 10 3.33331ZM10 11.6666C13.6834 11.6666 16.6667 13.1583 16.6667 15V16.6666H3.33337V15C3.33337 13.1583 6.31671 11.6666 10 11.6666Z" fill="#707070"/>
</g>
</svg>
